<svg width="38" height="44" viewBox="0 0 38 44" fill="none" xmlns="http://www.w3.org/2000/svg">
<path d="M17.0474 43.1123C2.66891 25.0105 0 23.1527 0 16.5C0 7.38727 8.50656 0 19 0C29.4934 0 38 7.38727 38 16.5C38 23.1527 35.3311 25.0105 20.9526 43.1123C20.0091 44.296 17.9908 44.2959 17.0474 43.1123Z" fill="#FF642C"/>
<path d="M18.1847 7.03518C16.6367 7.2563 15.3573 7.90493 14.2829 9.02037C13.3893 9.94908 12.8521 10.9564 12.5493 12.2684C12.4517 12.6959 12.4468 12.8581 12.4321 17.1184L12.4126 21.531H19.01H25.6074L25.5879 17.1921C25.5634 12.3962 25.5732 12.5387 25.2363 11.5215C24.4989 9.30046 22.7213 7.6838 20.4262 7.15311C19.8499 7.01552 18.7268 6.95656 18.1847 7.03518Z" fill="white"/>
<path d="M11.9342 22.3859C11.6998 22.4694 11.4068 22.7348 11.2847 22.9707C11.1919 23.1476 11.1772 23.2606 11.1772 23.7421L11.1724 24.3072L19.0004 24.322L26.8332 24.3318L26.8137 23.7274C26.7991 23.1525 26.7893 23.1082 26.6526 22.8773C26.5598 22.7299 26.4133 22.5825 26.2668 22.4891L26.0275 22.3417L19.0638 22.3319C13.6824 22.3269 12.0611 22.3368 11.9342 22.3859Z" fill="white"/>
<path d="M10.7081 25.1967C10.4883 25.295 10.2393 25.5357 10.1074 25.7814C10.0049 25.9682 10 26.037 10 27.3686V28.7641L10.1367 28.8821L10.2735 29H19.0147H27.7558L27.8779 28.8772L28 28.7543L27.9853 27.3096L27.9707 25.865L27.8242 25.6537C27.7412 25.5357 27.58 25.3736 27.4628 25.2901L27.2528 25.1426L19.0684 25.1328C11.8361 25.123 10.8595 25.1279 10.7081 25.1967Z" fill="white"/>
</svg>
