<svg width="38" height="44" viewBox="0 0 38 44" fill="none" xmlns="http://www.w3.org/2000/svg">
<path d="M17.0474 43.1123C2.66891 25.0105 0 23.1527 0 16.5C0 7.38727 8.50656 0 19 0C29.4934 0 38 7.38727 38 16.5C38 23.1527 35.3311 25.0105 20.9526 43.1123C20.0091 44.296 17.9908 44.2959 17.0474 43.1123Z" fill="#E64444"/>
<path d="M28.4447 11.6153H25.9231V7.55518C25.9231 7.24847 25.6744 6.99991 25.3677 7H24.9399C24.6332 7 24.3846 7.24863 24.3846 7.55533V11.6153H21.8638C21.5571 11.6153 21.3085 11.8639 21.3085 12.1706V20.8461H15.7121C15.4037 20.8461 15.1537 21.0962 15.1537 21.4045V26.4431C15.1546 26.7509 15.4043 27 15.7121 27H28.4447C28.7514 27 29 26.7514 29 26.4447V12.1701C29 11.8634 28.7514 11.6153 28.4447 11.6153ZM18.2307 23.9231H16.692V22.3844H18.2307V23.9231ZM21.3082 23.9231H19.7694V22.3844H21.3082V23.9231ZM24.3856 23.9231H22.8469V22.3844H24.3856V23.9231ZM24.3856 20.8457H22.8469V19.3069H24.3856V20.8457ZM24.3856 17.7682H22.8469V16.2295H24.3856V17.7682ZM24.3856 14.6907H22.8469V13.152H24.3856V14.6907ZM27.4631 23.9216H25.9244V22.3829H27.4631V23.9216ZM27.4631 20.8441H25.9244V19.3054H27.4631V20.8441ZM27.4631 17.7667H25.9244V16.2279H27.4631V17.7667ZM27.4631 14.6892H25.9244V13.1505H27.4631V14.6892ZM19.7691 7.55518C19.769 7.24854 19.5204 7 19.2138 7H15.7089C15.4022 7 15.1536 7.24863 15.1536 7.55533V10.0775H12.6314C12.3258 10.0782 12.0782 10.3258 12.0775 10.6314V11.6153H9.55518C9.24872 11.6154 9.00026 11.8637 9 12.1701V26.4442C9 26.7509 9.24863 26.9995 9.55533 26.9995H13.6153V19.3077H19.7691V7.55518ZM12.0775 23.9231H10.5387V22.3844H12.0775V23.9231ZM12.0775 20.8457H10.5387V19.3069H12.0775V20.8457ZM12.0775 17.7682H10.5387V16.2295H12.0775V17.7682ZM12.0775 14.6907H10.5387V13.152H12.0775V14.6907ZM15.1549 17.7682H13.6162V16.2295H15.1549V17.7682ZM15.1549 14.6907H13.6162V13.152H15.1549V14.6907ZM18.2324 17.7682H16.6937V16.2295H18.2324V17.7682ZM18.2324 14.6907H16.6937V13.152H18.2324V14.6907ZM18.2324 11.6133H16.6937V10.0775H18.2324V11.6162V11.6133Z" fill="white"/>
</svg>
