<svg width="38" height="44" viewBox="0 0 38 44" fill="none" xmlns="http://www.w3.org/2000/svg">
<path d="M17.0474 43.1123C2.66891 25.0105 0 23.1527 0 16.5C0 7.38727 8.50656 0 19 0C29.4934 0 38 7.38727 38 16.5C38 23.1527 35.3311 25.0105 20.9526 43.1123C20.0091 44.296 17.9908 44.2959 17.0474 43.1123Z" fill="#3A67BD"/>
<path d="M17.1362 8.70588L15.3044 11.4118L11.1549 11.4208L7 11.4343L9.0721 14.4649L11.1442 17.5L9.0721 20.5306L7 23.5657L11.1549 23.5792L15.3044 23.5882L17.1362 26.2941C18.1455 27.7824 18.984 29 19 29C19.016 29 19.8545 27.7824 20.8638 26.2941L22.6956 23.5882L26.8451 23.5792L31 23.5657L28.9279 20.5306L26.8558 17.5L28.9279 14.4649L31 11.4343L26.8451 11.4208L22.6956 11.4118L20.8638 8.70588C19.8545 7.21765 19.016 6 19 6C18.984 6 18.1455 7.21765 17.1362 8.70588ZM19.9239 10.0363C20.4152 10.7669 20.8158 11.3757 20.8158 11.3892C20.8158 11.4027 19.9987 11.4118 19 11.4118C18.0013 11.4118 17.1842 11.4027 17.1842 11.3892C17.1842 11.3441 18.968 8.70588 19 8.70588C19.016 8.70588 19.4326 9.30569 19.9239 10.0363ZM14.3431 12.8053C14.2897 12.9271 12.0948 16.102 12.0681 16.102C12.0467 16.102 11.5875 15.448 11.0427 14.6498C10.498 13.8516 9.99065 13.1029 9.90521 12.9812L9.76101 12.7647H12.0628C13.3284 12.7647 14.3538 12.7827 14.3431 12.8053ZM23.3845 15.1278C24.2603 16.4131 24.9813 17.482 24.9813 17.5C24.9813 17.518 24.2603 18.5869 23.3845 19.8722L21.7877 22.2127H19H16.2123L14.6155 19.8722C13.7397 18.5869 13.0187 17.518 13.0187 17.5C13.0187 17.4729 14.6796 15.0241 16.0948 12.9541L16.2283 12.7647L19.0053 12.7737L21.7877 12.7873L23.3845 15.1278ZM28.0948 12.9812C28.0093 13.1029 27.502 13.8516 26.9573 14.6498C26.4126 15.448 25.9533 16.102 25.9319 16.102C25.9052 16.102 23.7103 12.9271 23.6569 12.8053C23.6462 12.7827 24.6716 12.7647 25.9373 12.7647H28.239L28.0948 12.9812ZM13.227 20.5486C13.8465 21.4596 14.3485 22.2127 14.3378 22.2218C14.3271 22.2308 13.2964 22.2308 12.0467 22.2263L9.77704 22.2127L10.9039 20.5576C11.5234 19.6467 12.0467 18.898 12.0628 18.898C12.0841 18.898 12.6075 19.6422 13.227 20.5486ZM27.0961 20.5576L28.223 22.2127L25.9533 22.2263C24.7036 22.2308 23.6729 22.2308 23.6622 22.2218C23.6355 22.1947 25.8945 18.898 25.9373 18.898C25.9533 18.898 26.4766 19.6467 27.0961 20.5576ZM20.8158 23.6108C20.8158 23.6559 19.032 26.2941 19 26.2941C18.968 26.2941 17.1842 23.6559 17.1842 23.6108C17.1842 23.5973 18.0013 23.5882 19 23.5882C19.9987 23.5882 20.8158 23.5973 20.8158 23.6108Z" fill="white"/>
</svg>
