<svg width="94" height="76" viewBox="0 0 94 76" fill="none" xmlns="http://www.w3.org/2000/svg">
<path d="M0 35C0 15.67 15.67 0 35 0H83C89.0751 0 94 4.92487 94 11V42C94 60.7777 78.7777 76 60 76H7C3.13401 76 0 72.866 0 69V35Z" fill="#E34D4D"/>
<path d="M19.5078 33V17.3906H19.8242L24.4648 28.5352V33H19.5078ZM19.5078 11.625V8.39062H23.375L30.0898 24.668L33.8164 16.2656H34.168V27.6914L31.8125 33H28.4023L19.5078 11.625ZM36.0664 33V8.39062H41.0234V33H36.0664ZM52.9766 33V17.3906H53.293L57.9336 28.5352V33H52.9766ZM52.9766 11.625V8.39062H56.8438L63.5586 24.668L67.2852 16.2656H67.6367V27.6914L65.2812 33H61.8711L52.9766 11.625ZM69.5352 33V8.39062H74.4922V33H69.5352Z" fill="white"/>
<path d="M23.8584 59.5508V50.375C23.8584 49.2266 24.3623 48.1016 25.3701 47C26.6357 45.6641 28.2412 44.9844 30.1865 44.9609V49.5312C29.1318 49.625 28.5693 50.0703 28.499 50.8672V59.0586C28.5459 59.9727 29.1084 60.4414 30.1865 60.4648V65.0352C27.8896 65.0352 26.1084 64.1094 24.8428 62.2578C24.1865 61.2969 23.8584 60.3945 23.8584 59.5508ZM31.8037 65.0352V60.4648C32.7881 60.3477 33.3271 59.9023 33.4209 59.1289L33.3857 50.8672C33.2217 50.0234 32.6826 49.5781 31.7686 49.5312V44.9609C33.9717 44.9609 35.6943 45.8516 36.9365 47.6328C37.5928 48.5938 37.9209 49.5078 37.9209 50.375V59.5508C37.9209 60.7227 37.417 61.8711 36.4092 62.9961C35.1904 64.332 33.6553 65.0117 31.8037 65.0352ZM54.6025 58.2148V40.3906H59.5596V58.2148C59.583 59.1758 60.1221 59.8086 61.1768 60.1133C61.3408 60.1602 61.458 60.1836 61.5283 60.1836V65.1758C60.1689 65.1758 58.8096 64.6953 57.4502 63.7344C55.5752 62.3516 54.626 60.5117 54.6025 58.2148ZM63.4268 65.1758V60.1836C63.8486 60.1836 64.2939 59.9844 64.7627 59.5859C65.1611 59.2109 65.3721 58.7539 65.3955 58.2148V40.3906H70.3174V58.2148C70.3174 60.8633 69.1455 62.8438 66.8018 64.1562C65.6299 64.8359 64.5049 65.1758 63.4268 65.1758Z" fill="white"/>
</svg>
