<svg width="300" height="300" viewBox="0 0 300 300" fill="none" xmlns="http://www.w3.org/2000/svg">
<circle cx="150" cy="150" r="150" fill="#FFD7C9"/>
<path d="M42.248 87.5625C43.8887 87.5625 45.2949 88.1191 46.4668 89.2324C47.6387 90.2871 48.2539 91.6348 48.3125 93.2754V94.9453C48.2539 97.3477 48.4004 99.5742 48.752 101.625C49.1621 103.617 50.0996 105.404 51.5645 106.986C53.0293 108.568 54.875 109.418 57.1016 109.535H81.7988V93.4512C81.7988 91.8105 82.3848 90.4629 83.5566 89.4082C84.7871 88.2949 86.2227 87.7383 87.8633 87.7383C91.3789 88.0312 93.3125 89.9355 93.6641 93.4512V113.842C93.6641 118.529 93.0195 122.953 91.7305 127.113C90.5586 130.805 88.625 133.939 85.9297 136.518C83.293 139.037 79.9238 140.414 75.8223 140.648H44.1816C42.5996 140.59 41.252 140.033 40.1387 138.979C39.084 137.865 38.5273 136.518 38.4688 134.936C38.4688 133.295 38.9961 131.889 40.0508 130.717C41.1641 129.545 42.541 128.93 44.1816 128.871H72.834C75.0605 128.754 76.9062 127.904 78.3711 126.322C79.7188 124.857 80.627 123.188 81.0957 121.312H54.1133C50.0117 121.078 46.6133 119.701 43.918 117.182C41.2812 114.604 39.377 111.469 38.2051 107.777C37.0918 104.086 36.5059 100.16 36.4473 96V93.2754C36.5059 91.6934 37.0918 90.375 38.2051 89.3203C39.3184 88.207 40.666 87.6211 42.248 87.5625ZM133.215 142.318C130.168 142.318 127.15 141.967 124.162 141.264C121.232 140.561 118.42 139.535 115.725 138.188C113.029 136.781 110.656 134.936 108.605 132.65C106.555 130.365 105.441 127.641 105.266 124.477V120.785V105.756C105.266 104.115 105.852 102.768 107.023 101.713C108.254 100.6 109.689 100.043 111.33 100.043C114.846 100.336 116.75 102.24 117.043 105.756V109.623V121.752C117.16 123.568 117.834 125.092 119.064 126.322C120.354 127.494 121.76 128.432 123.283 129.135C124.865 129.838 126.477 130.365 128.117 130.717C129.816 131.068 131.516 131.244 133.215 131.244C134.914 131.244 136.584 131.068 138.225 130.717C139.924 130.365 141.535 129.838 143.059 129.135C144.641 128.432 146.047 127.494 147.277 126.322C148.566 125.092 149.27 123.568 149.387 121.752V109.623V105.756C149.387 104.115 149.973 102.768 151.145 101.713C152.375 100.6 153.811 100.043 155.451 100.043C158.967 100.336 160.9 102.24 161.252 105.756V120.785V124.477C161.076 127.641 159.934 130.365 157.824 132.65C155.773 134.936 153.4 136.781 150.705 138.188C148.01 139.535 145.168 140.561 142.18 141.264C139.25 141.967 136.262 142.318 133.215 142.318ZM191.135 99.6035C193.186 99.6035 195.178 99.9551 197.111 100.658C199.104 101.361 201.008 102.387 202.824 103.734C203.117 104.027 203.439 104.32 203.791 104.613C204.084 104.32 204.406 104.027 204.758 103.734C206.574 102.387 208.449 101.361 210.383 100.658C212.375 99.9551 214.367 99.6035 216.359 99.6035C218.41 99.6035 220.402 99.9551 222.336 100.658C224.328 101.361 226.203 102.416 227.961 103.822C229.777 105.17 231.359 106.986 232.707 109.271C234.113 111.557 234.816 114.281 234.816 117.445V136.166C234.465 139.682 232.531 141.586 229.016 141.879C227.375 141.879 225.939 141.352 224.709 140.297C223.537 139.184 222.951 137.807 222.951 136.166V118.148C222.951 116.742 222.688 115.57 222.16 114.633C221.633 113.637 221.047 112.875 220.402 112.348C219.758 111.762 219.084 111.352 218.381 111.117C217.678 110.824 216.975 110.678 216.271 110.678C215.568 110.678 214.865 110.824 214.162 111.117C213.518 111.352 212.873 111.762 212.229 112.348C211.584 112.875 210.998 113.637 210.471 114.633C209.943 115.57 209.65 116.742 209.592 118.148V136.166C209.24 139.682 207.307 141.586 203.791 141.879C202.15 141.879 200.715 141.352 199.484 140.297C198.312 139.184 197.727 137.807 197.727 136.166V118.148C197.727 116.742 197.463 115.57 196.936 114.633C196.408 113.637 195.822 112.875 195.178 112.348C194.533 111.762 193.859 111.352 193.156 111.117C192.453 110.824 191.75 110.678 191.047 110.678C190.344 110.678 189.641 110.824 188.938 111.117C188.293 111.352 187.648 111.762 187.004 112.348C186.359 112.875 185.773 113.637 185.246 114.633C184.719 115.57 184.426 116.742 184.367 118.148V136.166C184.074 139.682 182.17 141.586 178.654 141.879C177.014 141.879 175.578 141.352 174.348 140.297C173.176 139.184 172.59 137.807 172.59 136.166V117.445C172.707 114.281 173.439 111.557 174.787 109.271C176.135 106.986 177.717 105.17 179.533 103.822C181.35 102.416 183.225 101.361 185.158 100.658C187.15 99.9551 189.143 99.6035 191.135 99.6035Z" fill="black"/>
<path d="M71.248 169.562C72.8887 169.562 74.2949 170.119 75.4668 171.232C76.6387 172.287 77.2539 173.635 77.3125 175.275V176.945C77.2539 179.348 77.4004 181.574 77.752 183.625C78.1621 185.617 79.0996 187.404 80.5645 188.986C82.0293 190.568 83.875 191.418 86.1016 191.535H110.799V175.451C110.799 173.811 111.385 172.463 112.557 171.408C113.787 170.295 115.223 169.738 116.863 169.738C120.379 170.031 122.312 171.936 122.664 175.451V195.842C122.664 200.529 122.02 204.953 120.73 209.113C119.559 212.805 117.625 215.939 114.93 218.518C112.293 221.037 108.924 222.414 104.822 222.648H73.1816C71.5996 222.59 70.252 222.033 69.1387 220.979C68.084 219.865 67.5273 218.518 67.4688 216.936C67.4688 215.295 67.9961 213.889 69.0508 212.717C70.1641 211.545 71.541 210.93 73.1816 210.871H101.834C104.061 210.754 105.906 209.904 107.371 208.322C108.719 206.857 109.627 205.188 110.096 203.312H83.1133C79.0117 203.078 75.6133 201.701 72.918 199.182C70.2812 196.604 68.377 193.469 67.2051 189.777C66.0918 186.086 65.5059 182.16 65.4473 178V175.275C65.5059 173.693 66.0918 172.375 67.2051 171.32C68.3184 170.207 69.666 169.621 71.248 169.562ZM162.215 224.318C159.168 224.318 156.15 223.967 153.162 223.264C150.232 222.561 147.42 221.535 144.725 220.188C142.029 218.781 139.656 216.936 137.605 214.65C135.555 212.365 134.441 209.641 134.266 206.477V202.785V187.756C134.266 186.115 134.852 184.768 136.023 183.713C137.254 182.6 138.689 182.043 140.33 182.043C143.846 182.336 145.75 184.24 146.043 187.756V191.623V203.752C146.16 205.568 146.834 207.092 148.064 208.322C149.354 209.494 150.76 210.432 152.283 211.135C153.865 211.838 155.477 212.365 157.117 212.717C158.816 213.068 160.516 213.244 162.215 213.244C163.914 213.244 165.584 213.068 167.225 212.717C168.924 212.365 170.535 211.838 172.059 211.135C173.641 210.432 175.047 209.494 176.277 208.322C177.566 207.092 178.27 205.568 178.387 203.752V191.623V187.756C178.387 186.115 178.973 184.768 180.145 183.713C181.375 182.6 182.811 182.043 184.451 182.043C187.967 182.336 189.9 184.24 190.252 187.756V202.785V206.477C190.076 209.641 188.934 212.365 186.824 214.65C184.773 216.936 182.4 218.781 179.705 220.188C177.01 221.535 174.168 222.561 171.18 223.264C168.25 223.967 165.262 224.318 162.215 224.318ZM220.135 181.604C222.186 181.604 224.178 181.955 226.111 182.658C228.104 183.361 230.008 184.387 231.824 185.734C232.117 186.027 232.439 186.32 232.791 186.613C233.084 186.32 233.406 186.027 233.758 185.734C235.574 184.387 237.449 183.361 239.383 182.658C241.375 181.955 243.367 181.604 245.359 181.604C247.41 181.604 249.402 181.955 251.336 182.658C253.328 183.361 255.203 184.416 256.961 185.822C258.777 187.17 260.359 188.986 261.707 191.271C263.113 193.557 263.816 196.281 263.816 199.445V218.166C263.465 221.682 261.531 223.586 258.016 223.879C256.375 223.879 254.939 223.352 253.709 222.297C252.537 221.184 251.951 219.807 251.951 218.166V200.148C251.951 198.742 251.688 197.57 251.16 196.633C250.633 195.637 250.047 194.875 249.402 194.348C248.758 193.762 248.084 193.352 247.381 193.117C246.678 192.824 245.975 192.678 245.271 192.678C244.568 192.678 243.865 192.824 243.162 193.117C242.518 193.352 241.873 193.762 241.229 194.348C240.584 194.875 239.998 195.637 239.471 196.633C238.943 197.57 238.65 198.742 238.592 200.148V218.166C238.24 221.682 236.307 223.586 232.791 223.879C231.15 223.879 229.715 223.352 228.484 222.297C227.312 221.184 226.727 219.807 226.727 218.166V200.148C226.727 198.742 226.463 197.57 225.936 196.633C225.408 195.637 224.822 194.875 224.178 194.348C223.533 193.762 222.859 193.352 222.156 193.117C221.453 192.824 220.75 192.678 220.047 192.678C219.344 192.678 218.641 192.824 217.938 193.117C217.293 193.352 216.648 193.762 216.004 194.348C215.359 194.875 214.773 195.637 214.246 196.633C213.719 197.57 213.426 198.742 213.367 200.148V218.166C213.074 221.682 211.17 223.586 207.654 223.879C206.014 223.879 204.578 223.352 203.348 222.297C202.176 221.184 201.59 219.807 201.59 218.166V199.445C201.707 196.281 202.439 193.557 203.787 191.271C205.135 188.986 206.717 187.17 208.533 185.822C210.35 184.416 212.225 183.361 214.158 182.658C216.15 181.955 218.143 181.604 220.135 181.604Z" fill="black"/>
</svg>
