<svg width="38" height="44" viewBox="0 0 38 44" fill="none" xmlns="http://www.w3.org/2000/svg">
<path d="M17.0474 43.1123C2.66891 25.0105 0 23.1527 0 16.5C0 7.38727 8.50656 0 19 0C29.4934 0 38 7.38727 38 16.5C38 23.1527 35.3311 25.0105 20.9526 43.1123C20.0091 44.296 17.9908 44.2959 17.0474 43.1123Z" fill="#FF642C"/>
<path d="M18.7203 7.05482C18.6353 7.08923 17.9907 7.44201 17.2912 7.84641C16.2668 8.4358 16.002 8.60789 15.937 8.72834C15.8671 8.8488 15.7821 9.82539 15.4773 14.0114C15.2724 16.8336 15.1025 19.2083 15.1025 19.2858V19.4277H19.0001H22.8977V19.3159C22.8977 19.2513 22.7278 16.8766 22.5229 14.0372C22.2131 9.82108 22.1331 8.8488 22.0632 8.72834C21.9982 8.60789 21.7384 8.4358 20.709 7.84641C20.0045 7.44201 19.3599 7.08493 19.2699 7.05482C19.0651 6.98168 18.9202 6.98168 18.7203 7.05482Z" fill="white"/>
<path d="M14.0829 20.8346C14.0479 20.9808 13.5532 23.5449 13.5532 23.575C13.5532 23.5879 16.0017 23.6008 18.9998 23.6008C21.9979 23.6008 24.4464 23.5879 24.4464 23.575C24.4464 23.5449 23.9517 20.9808 23.9167 20.8346L23.8868 20.7184H18.9998H14.1129L14.0829 20.8346Z" fill="white"/>
<path d="M11.015 26.7371C11.03 28.5268 11.035 28.587 11.1349 28.7032C11.1899 28.7677 11.2998 28.8623 11.3748 28.9097C11.5097 29 11.5147 29 19 29C26.4853 29 26.4903 29 26.6252 28.9097C26.7002 28.8623 26.8101 28.7677 26.8651 28.7032C26.965 28.587 26.97 28.5268 26.985 26.7371L27 24.8915H19H11L11.015 26.7371Z" fill="white"/>
</svg>
